# xmcd
#
# Track frame offsets:
#	150
#	13649
#	29958
#	46453
#	64323
#	77789
#	92811
#	107564
#	121251
#	137103
#	148774
#	163762
#	176033
#
# Disc length: 2820 seconds
#
# Revision: 0
# Processed by: cddbd v1.5.2PL0 Copyright (c) Steve Scherf et al.
# Submitted via: audiograbber 1.83.01
#
DISCID=bd0b020d
DTITLE=Kacey Musgraves - Pageant Material
DYEAR=2015
DGENRE=Country
TTITLE0=High Time
TTITLE1=Dime Store Cowgirl
TTITLE2=Late To The Party
TTITLE3=Pageant Material
TTITLE4=This Town
TTITLE5=Biscuits
TTITLE6=Somebody To Love
TTITLE7=Miserable
TTITLE8=Die Fun
TTITLE9=Family Is Family
TTITLE10=Good Ol' Boys Club
TTITLE11=Cup Of Tea
TTITLE12=Fine
EXTD=
EXTT0=
EXTT1=
EXTT2=
EXTT3=
EXTT4=
EXTT5=
EXTT6=
EXTT7=
EXTT8=
EXTT9=
EXTT10=
EXTT11=
EXTT12=
PLAYORDER=
